<?xml version="1.0" encoding="utf-8"?>
<!-- Generator: Adobe Illustrator 24.3.0, SVG Export Plug-In . SVG Version: 6.00 Build 0)  -->
<svg version="1.1" id="Capa_1" xmlns="http://www.w3.org/2000/svg" xmlns:xlink="http://www.w3.org/1999/xlink" x="0px" y="0px"
	 viewBox="0 0 396 76" enable-background="new 0 0 396 76" xml:space="preserve">
<g>
	<g>
		<path fill="#FFFFFF" d="M5,75.5c-2.5,0-4.5-2-4.5-4.5V5c0-2.5,2-4.5,4.5-4.5h66c2.5,0,4.5,2,4.5,4.5v66c0,2.5-2,4.5-4.5,4.5H5z"/>
		<path d="M71,1c2.2,0,4,1.8,4,4v66c0,2.2-1.8,4-4,4H5c-2.2,0-4-1.8-4-4V5c0-2.2,1.8-4,4-4H71 M71,0H5C2.2,0,0,2.2,0,5v66
			c0,2.8,2.2,5,5,5h66c2.8,0,5-2.2,5-5V5C76,2.2,73.8,0,71,0L71,0z"/>
	</g>
	<g>
		<path d="M47.8,39.9c-0.2,2.7-1.2,4.8-3,6.3c-1.8,1.5-4.1,2.3-7,2.3c-3.2,0-5.7-1.1-7.5-3.2c-1.8-2.1-2.7-5.1-2.7-8.8V35
			c0-2.4,0.4-4.5,1.3-6.3c0.8-1.8,2-3.2,3.6-4.2c1.6-1,3.4-1.5,5.5-1.5c2.9,0,5.2,0.8,6.9,2.3s2.8,3.7,3,6.5h-5.1
			c-0.1-1.6-0.6-2.8-1.3-3.5c-0.8-0.7-1.9-1.1-3.5-1.1c-1.7,0-3,0.6-3.8,1.8c-0.8,1.2-1.3,3.1-1.3,5.7v1.9c0,2.7,0.4,4.7,1.2,5.9
			c0.8,1.2,2.1,1.9,3.9,1.9c1.6,0,2.8-0.4,3.5-1.1c0.8-0.7,1.2-1.8,1.3-3.4H47.8z"/>
	</g>
</g>
<g>
	<g>
		<path fill="#FFFFFF" d="M85,75.5c-2.5,0-4.5-2-4.5-4.5V5c0-2.5,2-4.5,4.5-4.5h66c2.5,0,4.5,2,4.5,4.5v66c0,2.5-2,4.5-4.5,4.5H85z"
			/>
		<path d="M151,1c2.2,0,4,1.8,4,4v66c0,2.2-1.8,4-4,4H85c-2.2,0-4-1.8-4-4V5c0-2.2,1.8-4,4-4H151 M151,0H85c-2.8,0-5,2.2-5,5v66
			c0,2.8,2.2,5,5,5h66c2.8,0,5-2.2,5-5V5C156,2.2,153.8,0,151,0L151,0z"/>
	</g>
	<g>
		<path d="M122.5,43.1h-9l-1.7,5.1h-5.5l9.3-24.9h4.8l9.3,24.9h-5.5L122.5,43.1z M114.9,38.9h6.2l-3.1-9.3L114.9,38.9z"/>
	</g>
</g>
<g>
	<g>
		<path fill="#FFFFFF" d="M165,75.5c-2.5,0-4.5-2-4.5-4.5V5c0-2.5,2-4.5,4.5-4.5h66c2.5,0,4.5,2,4.5,4.5v66c0,2.5-2,4.5-4.5,4.5H165
			z"/>
		<path d="M231,1c2.2,0,4,1.8,4,4v66c0,2.2-1.8,4-4,4h-66c-2.2,0-4-1.8-4-4V5c0-2.2,1.8-4,4-4H231 M231,0h-66c-2.8,0-5,2.2-5,5v66
			c0,2.8,2.2,5,5,5h66c2.8,0,5-2.2,5-5V5C236,2.2,233.8,0,231,0L231,0z"/>
	</g>
	<g>
		<path d="M208.7,48.2h-5.1l-10-16.4v16.4h-5.1V23.3h5.1l10,16.4V23.3h5.1V48.2z"/>
	</g>
</g>
<g>
	<g>
		<path fill="#FFFFFF" d="M245,75.5c-2.5,0-4.5-2-4.5-4.5V5c0-2.5,2-4.5,4.5-4.5h66c2.5,0,4.5,2,4.5,4.5v66c0,2.5-2,4.5-4.5,4.5H245
			z"/>
		<path d="M311,1c2.2,0,4,1.8,4,4v66c0,2.2-1.8,4-4,4h-66c-2.2,0-4-1.8-4-4V5c0-2.2,1.8-4,4-4H311 M311,0h-66c-2.8,0-5,2.2-5,5v66
			c0,2.8,2.2,5,5,5h66c2.8,0,5-2.2,5-5V5C316,2.2,313.8,0,311,0L311,0z"/>
	</g>
	<g>
		<path d="M287.2,27.5h-7.6v20.7h-5.1V27.5h-7.5v-4.2h20.3V27.5z"/>
	</g>
</g>
<g>
	<g>
		<path fill="#939B9F" d="M325,75.5c-2.5,0-4.5-2-4.5-4.5V5c0-2.5,2-4.5,4.5-4.5h66c2.5,0,4.5,2,4.5,4.5v66c0,2.5-2,4.5-4.5,4.5H325
			z"/>
		<path fill="#939B9F" d="M391,1c2.2,0,4,1.8,4,4v66c0,2.2-1.8,4-4,4h-66c-2.2,0-4-1.8-4-4V5c0-2.2,1.8-4,4-4H391 M391,0h-66
			c-2.8,0-5,2.2-5,5v66c0,2.8,2.2,5,5,5h66c2.8,0,5-2.2,5-5V5C396,2.2,393.8,0,391,0L391,0z"/>
	</g>
	<g>
		<path d="M368.9,36.4c0,2.4-0.4,4.6-1.3,6.4c-0.9,1.8-2.1,3.3-3.7,4.3c-1.6,1-3.5,1.5-5.5,1.5c-2.1,0-3.9-0.5-5.5-1.5
			c-1.6-1-2.9-2.4-3.8-4.2s-1.3-4-1.3-6.3v-1.2c0-2.4,0.4-4.6,1.3-6.5c0.9-1.9,2.1-3.3,3.7-4.3c1.6-1,3.5-1.5,5.5-1.5
			c2.1,0,3.9,0.5,5.5,1.5c1.6,1,2.9,2.4,3.7,4.3c0.9,1.9,1.3,4,1.3,6.5V36.4z M363.7,35.2c0-2.6-0.5-4.6-1.4-5.9c-0.9-1.4-2.3-2-4-2
			c-1.7,0-3,0.7-4,2c-0.9,1.3-1.4,3.3-1.4,5.9v1.2c0,2.5,0.5,4.5,1.4,5.9c0.9,1.4,2.3,2.1,4,2.1c1.7,0,3-0.7,4-2
			c0.9-1.3,1.4-3.3,1.4-5.9V35.2z"/>
	</g>
</g>
</svg>
