<?xml version="1.0" encoding="utf-8"?>
<!-- Generator: Adobe Illustrator 24.3.0, SVG Export Plug-In . SVG Version: 6.00 Build 0)  -->
<svg version="1.1" id="Capa_1" xmlns="http://www.w3.org/2000/svg" xmlns:xlink="http://www.w3.org/1999/xlink" x="0px" y="0px"
	 viewBox="0 0 396 76" enable-background="new 0 0 396 76" xml:space="preserve">
<g>
	<g>
		<path fill="#6AAA64" d="M5,75.5c-2.5,0-4.5-2-4.5-4.5V5c0-2.5,2-4.5,4.5-4.5h66c2.5,0,4.5,2,4.5,4.5v66c0,2.5-2,4.5-4.5,4.5H5z"/>
		<path fill="#6AAA64" d="M71,1c2.2,0,4,1.8,4,4v66c0,2.2-1.8,4-4,4H5c-2.2,0-4-1.8-4-4V5c0-2.2,1.8-4,4-4H71 M71,0H5
			C2.2,0,0,2.2,0,5v66c0,2.8,2.2,5,5,5h66c2.8,0,5-2.2,5-5V5C76,2.2,73.8,0,71,0L71,0z"/>
	</g>
	<g>
		<path d="M48,45.1c-0.9,1.1-2.2,2-3.9,2.6c-1.7,0.6-3.6,0.9-5.6,0.9c-2.2,0-4-0.5-5.7-1.4c-1.6-0.9-2.9-2.3-3.8-4.1
			s-1.3-3.9-1.4-6.3v-1.7c0-2.5,0.4-4.6,1.3-6.5c0.8-1.8,2-3.2,3.6-4.2S36,23,38.1,23c3,0,5.3,0.7,6.9,2.1c1.7,1.4,2.6,3.5,3,6.1h-5
			c-0.2-1.4-0.7-2.5-1.5-3.1c-0.8-0.7-1.9-1-3.2-1c-1.7,0-3.1,0.7-4,2c-0.9,1.3-1.4,3.3-1.4,5.8v1.6c0,2.6,0.5,4.6,1.5,5.9
			s2.4,2,4.4,2c1.9,0,3.3-0.4,4.1-1.2v-4.3h-4.7v-3.8H48V45.1z"/>
	</g>
</g>
<g>
	<g>
		<path fill="#FFFFFF" d="M85,75.5c-2.5,0-4.5-2-4.5-4.5V5c0-2.5,2-4.5,4.5-4.5h66c2.5,0,4.5,2,4.5,4.5v66c0,2.5-2,4.5-4.5,4.5H85z"
			/>
		<path d="M151,1c2.2,0,4,1.8,4,4v66c0,2.2-1.8,4-4,4H85c-2.2,0-4-1.8-4-4V5c0-2.2,1.8-4,4-4H151 M151,0H85c-2.8,0-5,2.2-5,5v66
			c0,2.8,2.2,5,5,5h66c2.8,0,5-2.2,5-5V5C156,2.2,153.8,0,151,0L151,0z"/>
	</g>
	<g>
		<path d="M122.5,43.1h-9l-1.7,5.1h-5.5l9.3-24.9h4.8l9.3,24.9h-5.5L122.5,43.1z M114.9,38.9h6.2l-3.1-9.3L114.9,38.9z"/>
	</g>
</g>
<g>
	<g>
		<path fill="#FFFFFF" d="M165,75.5c-2.5,0-4.5-2-4.5-4.5V5c0-2.5,2-4.5,4.5-4.5h66c2.5,0,4.5,2,4.5,4.5v66c0,2.5-2,4.5-4.5,4.5H165
			z"/>
		<path d="M231,1c2.2,0,4,1.8,4,4v66c0,2.2-1.8,4-4,4h-66c-2.2,0-4-1.8-4-4V5c0-2.2,1.8-4,4-4H231 M231,0h-66c-2.8,0-5,2.2-5,5v66
			c0,2.8,2.2,5,5,5h66c2.8,0,5-2.2,5-5V5C236,2.2,233.8,0,231,0L231,0z"/>
	</g>
	<g>
		<path d="M207.2,27.5h-7.6v20.7h-5.1V27.5h-7.5v-4.2h20.3V27.5z"/>
	</g>
</g>
<g>
	<g>
		<path fill="#FFFFFF" d="M245,75.5c-2.5,0-4.5-2-4.5-4.5V5c0-2.5,2-4.5,4.5-4.5h66c2.5,0,4.5,2,4.5,4.5v66c0,2.5-2,4.5-4.5,4.5H245
			z"/>
		<path d="M311,1c2.2,0,4,1.8,4,4v66c0,2.2-1.8,4-4,4h-66c-2.2,0-4-1.8-4-4V5c0-2.2,1.8-4,4-4H311 M311,0h-66c-2.8,0-5,2.2-5,5v66
			c0,2.8,2.2,5,5,5h66c2.8,0,5-2.2,5-5V5C316,2.2,313.8,0,311,0L311,0z"/>
	</g>
	<g>
		<path d="M288.9,36.4c0,2.4-0.4,4.6-1.3,6.4c-0.9,1.8-2.1,3.3-3.7,4.3c-1.6,1-3.5,1.5-5.5,1.5c-2.1,0-3.9-0.5-5.5-1.5
			c-1.6-1-2.9-2.4-3.8-4.2s-1.3-4-1.3-6.3v-1.2c0-2.4,0.4-4.6,1.3-6.5c0.9-1.9,2.1-3.3,3.7-4.3c1.6-1,3.5-1.5,5.5-1.5
			c2.1,0,3.9,0.5,5.5,1.5c1.6,1,2.9,2.4,3.7,4.3c0.9,1.9,1.3,4,1.3,6.5V36.4z M283.7,35.2c0-2.6-0.5-4.6-1.4-5.9c-0.9-1.4-2.3-2-4-2
			c-1.7,0-3,0.7-4,2c-0.9,1.3-1.4,3.3-1.4,5.9v1.2c0,2.5,0.5,4.5,1.4,5.9c0.9,1.4,2.3,2.1,4,2.1c1.7,0,3-0.7,4-2
			c0.9-1.3,1.4-3.3,1.4-5.9V35.2z"/>
	</g>
</g>
<g>
	<g>
		<path fill="#FFFFFF" d="M325,75.5c-2.5,0-4.5-2-4.5-4.5V5c0-2.5,2-4.5,4.5-4.5h66c2.5,0,4.5,2,4.5,4.5v66c0,2.5-2,4.5-4.5,4.5H325
			z"/>
		<path d="M391,1c2.2,0,4,1.8,4,4v66c0,2.2-1.8,4-4,4h-66c-2.2,0-4-1.8-4-4V5c0-2.2,1.8-4,4-4H391 M391,0h-66c-2.8,0-5,2.2-5,5v66
			c0,2.8,2.2,5,5,5h66c2.8,0,5-2.2,5-5V5C396,2.2,393.8,0,391,0L391,0z"/>
	</g>
	<g>
		<path d="M361.3,41.7c0-1-0.3-1.7-1-2.2c-0.7-0.5-1.9-1.1-3.7-1.6c-1.8-0.6-3.2-1.1-4.2-1.7c-2.8-1.5-4.2-3.6-4.2-6.2
			c0-1.3,0.4-2.5,1.1-3.6c0.8-1.1,1.8-1.9,3.3-2.5c1.4-0.6,3-0.9,4.8-0.9c1.8,0,3.4,0.3,4.8,1c1.4,0.6,2.5,1.6,3.2,2.7
			c0.8,1.2,1.2,2.5,1.2,4h-5.1c0-1.1-0.4-2-1.1-2.7c-0.7-0.6-1.7-0.9-3-0.9c-1.3,0-2.2,0.3-2.9,0.8c-0.7,0.5-1,1.2-1,2.1
			c0,0.8,0.4,1.5,1.2,2s2,1.1,3.6,1.5c2.9,0.9,5,2,6.4,3.3s2,2.9,2,4.9c0,2.2-0.8,3.8-2.4,5.1c-1.6,1.2-3.8,1.8-6.6,1.8
			c-1.9,0-3.7-0.4-5.2-1.1c-1.6-0.7-2.8-1.7-3.6-2.9c-0.8-1.2-1.2-2.6-1.2-4.2h5.1c0,2.7,1.6,4.1,4.9,4.1c1.2,0,2.2-0.2,2.9-0.7
			C361,43.3,361.3,42.6,361.3,41.7z"/>
	</g>
</g>
</svg>
